<?xml version="1.0" encoding="UTF-8" standalone="no"?>
<!-- Created with Inkscape (http://www.inkscape.org/) -->

<svg
   width="30mm"
   height="50mm"
   viewBox="0 0 30 50"
   version="1.1"
   id="svg1"
   xml:space="preserve"
   inkscape:version="1.4.2 (f4327f4, 2025-05-13)"
   sodipodi:docname="loss.svg"
   inkscape:export-filename="Desktop\nota_2pernas.svg"
   inkscape:export-xdpi="96"
   inkscape:export-ydpi="96"
   xmlns:inkscape="http://www.inkscape.org/namespaces/inkscape"
   xmlns:sodipodi="http://sodipodi.sourceforge.net/DTD/sodipodi-0.dtd"
   xmlns="http://www.w3.org/2000/svg"
   xmlns:svg="http://www.w3.org/2000/svg"><sodipodi:namedview
     id="namedview1"
     pagecolor="#ffffff"
     bordercolor="#000000"
     borderopacity="0.25"
     inkscape:showpageshadow="2"
     inkscape:pageopacity="0.0"
     inkscape:pagecheckerboard="0"
     inkscape:deskcolor="#d1d1d1"
     inkscape:document-units="mm"
     inkscape:zoom="1.4142136"
     inkscape:cx="19.445436"
     inkscape:cy="168.64497"
     inkscape:window-width="1920"
     inkscape:window-height="1009"
     inkscape:window-x="-8"
     inkscape:window-y="-8"
     inkscape:window-maximized="1"
     inkscape:current-layer="layer3"
     inkscape:export-bgcolor="#ffffff00" /><defs
     id="defs1" /><g
     inkscape:groupmode="layer"
     id="layer3"
     inkscape:label="vetor 1"><path
       style="opacity:0.475783;fill:#000000;stroke-width:0.264583"
       d="m 20.579458,36.412408 -2.016832,0.71565 0.195175,1.17106 0.585534,0.97589 1.366239,-0.0651 4.358958,0.0651 2.862601,-2.53731 0.325294,-20.88396 L 20.25416,8.3068831 5.290574,8.1767641 2.818329,10.909246 2.558093,35.826868 l 0.58553,1.43131 0.650592,0.39035 1.106004,-0.19518 0.780708,-0.39035 0.260237,-0.78071 -0.390353,-0.97589 -0.06506,-23.681502 0.585534,-0.260236 0.650589,-0.390356 10.019098,0.130119 v 4.684255 l 0.260236,1.23612 0.650592,0.58553 0.455414,0.45542 0.585531,0.71565 0.585531,0.19517 1.040947,0.3253 4.814372,0.13012 v 16.32983 l -0.390356,0.39035 -0.845767,0.19518 z"
       id="path2" /><path
       style="opacity:0.475783;fill:#000000;stroke-width:0.264583"
       d="m 15.375081,26.019829 -0.325294,-2.34213 h -1.236123 l -1.236123,0.45542 0.06506,2.47224 1.171064,1.17107 1.171062,-0.26024 z"
       id="path3" /><path
       style="opacity:0.475783;fill:#000000;stroke-width:0.264583"
       d="m 14.927756,20.595665 -0.06506,-3.1879 -0.975887,-0.45541 -1.040945,0.19517 -0.195177,0.78071 -0.325295,2.14695 0.455411,0.45542 0.715651,0.58553 h 0.520472 z"
       id="path4" /><path
       style="opacity:0.475783;fill:#000000;stroke-width:0.264583"
       d="m 15.131021,32.26515 2.146951,1.30118 0.650592,1.7566 -0.130119,1.95177 -1.561418,2.34213 -3.448131,0.78071 -2.667422,-2.01683 -0.7807093,-2.92766"
       id="path5" /><path
       style="opacity:0.475783;fill:#000000;stroke-width:0.264583"
       d="m 9.047822,35.632047 0.975887,-2.40719 1.236122,-0.52047 0.390356,-2.34212 0.975884,-1.04095 1.106006,0.65059 0.520472,0.97589 v 1.106 l 1.561418,1.56142"
       id="path6" /></g></svg>
