<?xml version="1.0" encoding="UTF-8" standalone="no"?>
<!-- Created with Inkscape (http://www.inkscape.org/) -->

<svg
   width="210mm"
   height="297mm"
   viewBox="0 0 210 297"
   version="1.1"
   id="svg1"
   xml:space="preserve"
   inkscape:version="1.4.2 (f4327f4, 2025-05-13)"
   sodipodi:docname="nota_2pernas.svg"
   inkscape:export-filename="Desktop\nota_2pernas.svg"
   inkscape:export-xdpi="96"
   inkscape:export-ydpi="96"
   xmlns:inkscape="http://www.inkscape.org/namespaces/inkscape"
   xmlns:sodipodi="http://sodipodi.sourceforge.net/DTD/sodipodi-0.dtd"
   xmlns="http://www.w3.org/2000/svg"
   xmlns:svg="http://www.w3.org/2000/svg"><sodipodi:namedview
     id="namedview1"
     pagecolor="#ffffff"
     bordercolor="#000000"
     borderopacity="0.25"
     inkscape:showpageshadow="2"
     inkscape:pageopacity="0.0"
     inkscape:pagecheckerboard="0"
     inkscape:deskcolor="#d1d1d1"
     inkscape:document-units="mm"
     inkscape:zoom="0.35945918"
     inkscape:cx="-340.78974"
     inkscape:cy="663.49677"
     inkscape:window-width="1920"
     inkscape:window-height="1009"
     inkscape:window-x="-8"
     inkscape:window-y="-8"
     inkscape:window-maximized="1"
     inkscape:current-layer="layer2"
     inkscape:export-bgcolor="#ffffff00" /><defs
     id="defs1" /><g
     inkscape:groupmode="layer"
     id="layer2"
     inkscape:label="vetor"><path
       style="opacity:0.475783;fill:#000000;stroke-width:0.264583"
       d="m 86.486988,210.88104 c 0,-1.47212 -0.73606,-95.3197 -0.73606,-95.3197 l 74.710042,-13.24907 0.36802,84.27881 -12.14498,-3.6803 -13.24907,2.20818 -11.04089,6.99256 -3.6803,9.20074 2.20818,8.83272 8.83272,5.52045 6.2565,1.10408 h 4.78439 l 12.14498,-2.20817 13.24907,-12.88105 L 167.0855,81.334572 79.494424,98.263939 79.862451,199.10409 c 0,0 12.851597,3.66661 0,0 l -10.899825,-4.3172 -17.435834,3.38307 -9.498626,7.93721 -2.342126,8.5878 2.992717,7.41673 9.758862,5.59508 17.04548,-0.39035 12.881698,-7.41674 z"
       id="path2" /></g></svg>
